# xmcd
#
# Track frame offsets: 
#        150
#        4494
#        18458
#        33960
#        50002
#        67587
#        83629
#        93289
#        104324
#        121492
#        133239
#        146141
#        163114
#        181106
#        203020
#        212395
#        221400
#        235145
#        248338
#        262210
#        276715
#        286508
#        300503
#        312390
#
# Disc length: 4369 seconds
#
# Revision: 0
# Processed by: cddbd v1.5.2PL0 Copyright (c) Steve Scherf et al.
# Submitted via: ExactAudioCopy v1.0b1
#
DISCID=52110f18
DTITLE=Automatikk - Killatape 2
DYEAR=2007
DGENRE=Hip-Hop
TTITLE0=Intro
TTITLE1=Bis die Strasse brennt
TTITLE2=Ich lebe meinen Traum (feat. Sido)
TTITLE3=Ich zeig dir wie das geht
TTITLE4=Karma (feat. Alpa Gun)
TTITLE5=Kingz (feat. Keskin, Ilyaz)
TTITLE6=Rapstar (feat. Bass Sultan Hengzt)
TTITLE7=Meine Gegend
TTITLE8=Ein Blut
TTITLE9=Halt
TTITLE10=Tokat (feat. Godsilla)
TTITLE11=Niemals Angst (feat. Mok)
TTITLE12=Was weiﬂt du schon (feat. Boxxxstar, Aci Krank)
TTITLE13=Scheiss auf dein Battle (feat. Gino Casino, Reason)
TTITLE14=Eisenstahl
TTITLE15=Kann es sein
TTITLE16=Verpiss dich (feat. Smoky, B-Tight)
TTITLE17=Geldmachen
TTITLE18=Du denkst (feat. Sady K)
TTITLE19=Hass mich (feat. Iron Arm, Shafiq)
TTITLE20=Zeig mir
TTITLE21=Ich zieh dich ab
TTITLE22=Hitze (feat. Hengzt)
TTITLE23=Drama (feat. Sahira)
EXTD=
EXTT0=
EXTT1=
EXTT2=
EXTT3=
EXTT4=
EXTT5=
EXTT6=
EXTT7=
EXTT8=
EXTT9=
EXTT10=
EXTT11=
EXTT12=
EXTT13=
EXTT14=
EXTT15=
EXTT16=
EXTT17=
EXTT18=
EXTT19=
EXTT20=
EXTT21=
EXTT22=
EXTT23=
PLAYORDER=
